<mxfile host="65bd71144e">
    <diagram id="zKiX-FVWP6Yl8MSf7DtL" name="Page-1">
        <mxGraphModel dx="1115" dy="930" grid="0" gridSize="10" guides="1" tooltips="1" connect="1" arrows="1" fold="1" page="0" pageScale="1" pageWidth="827" pageHeight="1169" background="none" math="0" shadow="0">
            <root>
                <mxCell id="0"/>
                <mxCell id="1" parent="0"/>
                <mxCell id="OVmF6QTKROwjGrCkS3I4-53" value="" style="rounded=0;whiteSpace=wrap;html=1;fontSize=13;strokeWidth=2;" parent="1" vertex="1">
                    <mxGeometry x="511" y="150" width="1460" height="790" as="geometry"/>
                </mxCell>
                <mxCell id="OVmF6QTKROwjGrCkS3I4-43" value="" style="shape=process;whiteSpace=wrap;html=1;backgroundOutline=1;fontSize=14;strokeWidth=2;fillColor=#fff2cc;gradientColor=#ffd966;strokeColor=#d6b656;rounded=0;" parent="1" vertex="1">
                    <mxGeometry x="900" y="280" width="210" height="80" as="geometry"/>
                </mxCell>
                <mxCell id="Ddy7iaUjBOIfkeHLVFxj-1" value="" style="rounded=0;whiteSpace=wrap;html=1;fillColor=#FFFDE4;strokeColor=#d6b656;strokeWidth=4;arcSize=5;" parent="1" vertex="1">
                    <mxGeometry x="1630" y="190" width="310" height="610" as="geometry"/>
                </mxCell>
                <mxCell id="Ddy7iaUjBOIfkeHLVFxj-3" value="&lt;h1&gt;&lt;br&gt;&lt;/h1&gt;" style="text;html=1;strokeColor=none;fillColor=#E1D5E7;spacing=5;spacingTop=-20;whiteSpace=wrap;overflow=hidden;rounded=0;" parent="1" vertex="1">
                    <mxGeometry x="1670" y="360" width="242" height="110" as="geometry"/>
                </mxCell>
                <mxCell id="Ddy7iaUjBOIfkeHLVFxj-5" value="Okey" style="rounded=0;whiteSpace=wrap;html=1;fillColor=#e1d5e7;strokeColor=#9673a6;" parent="1" vertex="1">
                    <mxGeometry x="1670" y="580" width="84" height="30" as="geometry"/>
                </mxCell>
                <mxCell id="OVmF6QTKROwjGrCkS3I4-5" value="Functions as props" style="text;html=1;strokeColor=none;fillColor=none;align=center;verticalAlign=middle;whiteSpace=wrap;rounded=0;fontSize=14;" parent="1" vertex="1">
                    <mxGeometry x="717" y="435" width="60" height="30" as="geometry"/>
                </mxCell>
                <mxCell id="OVmF6QTKROwjGrCkS3I4-8" value="Components" style="text;html=1;strokeColor=none;fillColor=none;align=center;verticalAlign=middle;whiteSpace=wrap;rounded=0;fontSize=14;" parent="1" vertex="1">
                    <mxGeometry x="720" y="300" width="60" height="30" as="geometry"/>
                </mxCell>
                <mxCell id="OVmF6QTKROwjGrCkS3I4-9" value="&lt;ul&gt;&lt;li&gt;&lt;b&gt;Add to list ()&lt;/b&gt;&lt;/li&gt;&lt;/ul&gt;" style="text;html=1;strokeColor=none;fillColor=none;align=left;verticalAlign=middle;whiteSpace=wrap;rounded=0;fontSize=14;" parent="1" vertex="1">
                    <mxGeometry x="890" y="285" width="130" height="30" as="geometry"/>
                </mxCell>
                <mxCell id="OVmF6QTKROwjGrCkS3I4-10" value="&lt;ul&gt;&lt;li&gt;&lt;b&gt;Remove(highlighted box)&lt;/b&gt;&lt;/li&gt;&lt;/ul&gt;" style="text;html=1;strokeColor=none;fillColor=none;align=left;verticalAlign=middle;whiteSpace=wrap;rounded=0;fontSize=14;" parent="1" vertex="1">
                    <mxGeometry x="890" y="315" width="90" height="30" as="geometry"/>
                </mxCell>
                <mxCell id="OVmF6QTKROwjGrCkS3I4-19" value="" style="rounded=0;whiteSpace=wrap;html=1;fillColor=#d5e8d4;strokeColor=#82b366;" parent="1" vertex="1">
                    <mxGeometry x="1657" y="630" width="260" height="30" as="geometry"/>
                </mxCell>
                <mxCell id="OVmF6QTKROwjGrCkS3I4-16" value="Highlighter (parent component)" style="swimlane;fontSize=14;strokeWidth=4;fillColor=#fff2cc;strokeColor=#d6b656;swimlaneFillColor=#FFFDE4;gradientColor=#FFFF33;rounded=0;" parent="1" vertex="1">
                    <mxGeometry x="900" y="360" width="570" height="510" as="geometry"/>
                </mxCell>
                <mxCell id="OVmF6QTKROwjGrCkS3I4-17" value="HighlightedInput" style="swimlane;fontSize=14;strokeWidth=4;fillColor=#e1d5e7;strokeColor=#9673a6;swimlaneFillColor=#F9F6FA;rounded=0;" parent="OVmF6QTKROwjGrCkS3I4-16" vertex="1">
                    <mxGeometry x="170" y="90" width="310" height="130" as="geometry"/>
                </mxCell>
                <mxCell id="OVmF6QTKROwjGrCkS3I4-45" value="&lt;b&gt;Box and ok button&lt;br&gt;&amp;lt;div&amp;gt;&lt;/b&gt;" style="text;html=1;strokeColor=none;fillColor=none;align=center;verticalAlign=middle;whiteSpace=wrap;rounded=0;fontSize=11;" parent="OVmF6QTKROwjGrCkS3I4-17" vertex="1">
                    <mxGeometry x="40" y="50" width="60" height="30" as="geometry"/>
                </mxCell>
                <mxCell id="OVmF6QTKROwjGrCkS3I4-46" value="&lt;b&gt;Image and two other components&lt;br&gt;&amp;lt;div&amp;gt;&lt;br&gt;&amp;lt;/div&amp;gt;&lt;/b&gt;&lt;b style=&quot;font-size: 13px&quot;&gt;&lt;br&gt;&lt;/b&gt;" style="text;html=1;strokeColor=none;fillColor=none;align=center;verticalAlign=middle;whiteSpace=wrap;rounded=0;fontSize=11;strokeWidth=0;" parent="OVmF6QTKROwjGrCkS3I4-17" vertex="1">
                    <mxGeometry x="180" y="60" width="90" height="30" as="geometry"/>
                </mxCell>
                <mxCell id="OVmF6QTKROwjGrCkS3I4-30" value="" style="shape=process;whiteSpace=wrap;html=1;backgroundOutline=1;fontSize=14;strokeWidth=2;fillColor=#E6E6E6;rounded=0;" parent="OVmF6QTKROwjGrCkS3I4-16" vertex="1">
                    <mxGeometry x="270" y="290" width="210" height="95" as="geometry"/>
                </mxCell>
                <mxCell id="OVmF6QTKROwjGrCkS3I4-31" value="&lt;font face=&quot;Courier New&quot;&gt;&lt;span style=&quot;font-size: 11px&quot;&gt;&lt;b&gt;HighlightedBox&lt;/b&gt;&lt;/span&gt;&lt;b style=&quot;font-size: 11px&quot;&gt;&amp;nbsp;=&lt;/b&gt;&lt;b style=&quot;font-size: 11px&quot;&gt;{&lt;/b&gt;&lt;br&gt;&lt;span style=&quot;font-size: 11px ; font-weight: bold&quot;&gt;&#9;&lt;/span&gt;&lt;span style=&quot;font-size: 11px ; font-weight: bold&quot;&gt;&#9;&lt;/span&gt;&lt;span style=&quot;font-size: 11px ; font-weight: bold&quot;&gt;&#9;&lt;/span&gt;&lt;span style=&quot;font-size: 11px ; font-weight: bold&quot;&gt;&#9;&lt;/span&gt;&lt;b style=&quot;font-size: 11px&quot;&gt;Id: x2314&lt;/b&gt;&lt;br&gt;&lt;b style=&quot;font-size: 11px&quot;&gt;Value: word..'&lt;/b&gt;&lt;br&gt;&lt;b style=&quot;font-size: 11px&quot;&gt;}&lt;/b&gt;&lt;/font&gt;" style="text;html=1;strokeColor=none;fillColor=none;align=left;verticalAlign=middle;whiteSpace=wrap;rounded=0;fontSize=14;" parent="OVmF6QTKROwjGrCkS3I4-16" vertex="1">
                    <mxGeometry x="320" y="274.68" width="140" height="120.63" as="geometry"/>
                </mxCell>
                <mxCell id="OVmF6QTKROwjGrCkS3I4-35" value="HighlightedBoxes" style="swimlane;fontSize=14;strokeWidth=4;fillColor=#d5e8d4;strokeColor=#82b366;swimlaneFillColor=#F7FAF6;rounded=0;" parent="OVmF6QTKROwjGrCkS3I4-16" vertex="1">
                    <mxGeometry x="191" y="380" width="289" height="100" as="geometry"/>
                </mxCell>
                <mxCell id="OVmF6QTKROwjGrCkS3I4-47" value="&lt;font style=&quot;font-size: 11px&quot;&gt;&lt;b&gt;Highlighted&lt;/b&gt;&lt;b&gt;&amp;nbsp;box and remove button&lt;/b&gt;&lt;/font&gt;" style="text;html=1;strokeColor=none;fillColor=none;align=center;verticalAlign=middle;whiteSpace=wrap;rounded=0;fontSize=11;" parent="OVmF6QTKROwjGrCkS3I4-35" vertex="1">
                    <mxGeometry x="48" y="55" width="181" height="15" as="geometry"/>
                </mxCell>
                <mxCell id="OVmF6QTKROwjGrCkS3I4-65" value="X" style="text;html=1;align=center;verticalAlign=middle;resizable=0;points=[];autosize=1;strokeColor=default;fillColor=none;fontSize=11;rounded=0;" parent="OVmF6QTKROwjGrCkS3I4-35" vertex="1">
                    <mxGeometry x="9" y="70" width="20" height="20" as="geometry"/>
                </mxCell>
                <mxCell id="OVmF6QTKROwjGrCkS3I4-48" value="&lt;div style=&quot;font-family: &amp;#34;jetbrains mono&amp;#34; , &amp;#34;menlo&amp;#34; , &amp;#34;monaco&amp;#34; , &amp;#34;courier new&amp;#34; , monospace , &amp;#34;menlo&amp;#34; , &amp;#34;monaco&amp;#34; , &amp;#34;courier new&amp;#34; , monospace ; line-height: 18px&quot;&gt;&lt;font color=&quot;#191919&quot; style=&quot;font-size: 11px&quot;&gt;Highlighted text (string)&lt;/font&gt;&lt;/div&gt;" style="shape=process;whiteSpace=wrap;html=1;backgroundOutline=1;fontSize=14;strokeWidth=2;fillColor=#E6E6E6;rounded=0;" parent="OVmF6QTKROwjGrCkS3I4-16" vertex="1">
                    <mxGeometry x="331" y="35" width="149" height="55" as="geometry"/>
                </mxCell>
                <mxCell id="OVmF6QTKROwjGrCkS3I4-69" value="&lt;b&gt;On click X Icon&lt;/b&gt;" style="text;html=1;strokeColor=none;fillColor=none;align=center;verticalAlign=middle;whiteSpace=wrap;rounded=0;fontSize=11;" parent="OVmF6QTKROwjGrCkS3I4-16" vertex="1">
                    <mxGeometry x="30" y="470" width="130" height="30" as="geometry"/>
                </mxCell>
                <mxCell id="OVmF6QTKROwjGrCkS3I4-70" value="&lt;b&gt;Pass Remove() as a props&lt;/b&gt;" style="text;html=1;strokeColor=none;fillColor=none;align=center;verticalAlign=middle;whiteSpace=wrap;rounded=0;fontSize=11;" parent="OVmF6QTKROwjGrCkS3I4-16" vertex="1">
                    <mxGeometry x="61" y="255" width="89" height="30" as="geometry"/>
                </mxCell>
                <mxCell id="OVmF6QTKROwjGrCkS3I4-20" value="" style="rounded=0;whiteSpace=wrap;html=1;fillColor=#d5e8d4;strokeColor=#82b366;" parent="1" vertex="1">
                    <mxGeometry x="1655" y="680" width="260" height="30" as="geometry"/>
                </mxCell>
                <mxCell id="OVmF6QTKROwjGrCkS3I4-21" value="" style="rounded=0;whiteSpace=wrap;html=1;fillColor=#d5e8d4;strokeColor=#82b366;" parent="1" vertex="1">
                    <mxGeometry x="1655" y="730" width="260" height="30" as="geometry"/>
                </mxCell>
                <mxCell id="OVmF6QTKROwjGrCkS3I4-22" value="" style="endArrow=none;dashed=1;html=1;dashPattern=1 3;strokeWidth=2;rounded=0;fontSize=14;entryX=0;entryY=0.5;entryDx=0;entryDy=0;" parent="1" target="OVmF6QTKROwjGrCkS3I4-19" edge="1">
                    <mxGeometry width="50" height="50" relative="1" as="geometry">
                        <mxPoint x="1380" y="800" as="sourcePoint"/>
                        <mxPoint x="1290" y="560" as="targetPoint"/>
                    </mxGeometry>
                </mxCell>
                <mxCell id="OVmF6QTKROwjGrCkS3I4-25" value="" style="shape=process;whiteSpace=wrap;html=1;backgroundOutline=1;fontSize=14;strokeWidth=2;fillColor=#E6E6E6;rounded=0;" parent="1" vertex="1">
                    <mxGeometry x="1300" y="270" width="170" height="90" as="geometry"/>
                </mxCell>
                <mxCell id="OVmF6QTKROwjGrCkS3I4-23" value="" style="endArrow=none;dashed=1;html=1;dashPattern=1 3;strokeWidth=2;rounded=0;fontSize=14;entryX=0;entryY=0.5;entryDx=0;entryDy=0;exitX=1;exitY=0.5;exitDx=0;exitDy=0;" parent="1" source="OVmF6QTKROwjGrCkS3I4-17" edge="1">
                    <mxGeometry width="50" height="50" relative="1" as="geometry">
                        <mxPoint x="1340" y="570" as="sourcePoint"/>
                        <mxPoint x="1670" y="510" as="targetPoint"/>
                    </mxGeometry>
                </mxCell>
                <mxCell id="OVmF6QTKROwjGrCkS3I4-26" value="&lt;b&gt;higlighedList [ ]&lt;/b&gt;" style="text;html=1;strokeColor=none;fillColor=none;align=center;verticalAlign=middle;whiteSpace=wrap;rounded=0;fontSize=14;" parent="1" vertex="1">
                    <mxGeometry x="1320" y="300" width="130" height="30" as="geometry"/>
                </mxCell>
                <mxCell id="OVmF6QTKROwjGrCkS3I4-24" value="" style="endArrow=none;dashed=1;html=1;dashPattern=1 3;strokeWidth=2;rounded=0;fontSize=14;entryX=0;entryY=0.25;entryDx=0;entryDy=0;" parent="1" target="Ddy7iaUjBOIfkeHLVFxj-1" edge="1">
                    <mxGeometry width="50" height="50" relative="1" as="geometry">
                        <mxPoint x="1470" y="400" as="sourcePoint"/>
                        <mxPoint x="1670" y="520" as="targetPoint"/>
                    </mxGeometry>
                </mxCell>
                <mxCell id="OVmF6QTKROwjGrCkS3I4-27" value="" style="shape=process;whiteSpace=wrap;html=1;backgroundOutline=1;fontSize=14;strokeWidth=2;fillColor=#E6E6E6;rounded=0;" parent="1" vertex="1">
                    <mxGeometry x="580" y="360" width="100" height="50" as="geometry"/>
                </mxCell>
                <mxCell id="OVmF6QTKROwjGrCkS3I4-28" value="" style="swimlane;fontSize=14;strokeWidth=2;gradientColor=#FFFF33;rounded=0;" parent="1" vertex="1">
                    <mxGeometry x="580" y="290" width="100" height="50" as="geometry"/>
                </mxCell>
                <mxCell id="OVmF6QTKROwjGrCkS3I4-29" value="Main states as Props" style="text;html=1;strokeColor=none;fillColor=none;align=center;verticalAlign=middle;whiteSpace=wrap;rounded=0;fontSize=14;" parent="1" vertex="1">
                    <mxGeometry x="710" y="370" width="80" height="30" as="geometry"/>
                </mxCell>
                <mxCell id="OVmF6QTKROwjGrCkS3I4-37" value="" style="endArrow=classic;html=1;rounded=0;fontSize=11;exitX=1;exitY=0.5;exitDx=0;exitDy=0;strokeWidth=2;" parent="1" source="OVmF6QTKROwjGrCkS3I4-25" target="OVmF6QTKROwjGrCkS3I4-31" edge="1">
                    <mxGeometry width="50" height="50" relative="1" as="geometry">
                        <mxPoint x="1510" y="315" as="sourcePoint"/>
                        <mxPoint x="1550" y="280" as="targetPoint"/>
                        <Array as="points">
                            <mxPoint x="1510" y="315"/>
                            <mxPoint x="1510" y="645"/>
                        </Array>
                    </mxGeometry>
                </mxCell>
                <mxCell id="OVmF6QTKROwjGrCkS3I4-38" value="" style="endArrow=classic;html=1;rounded=0;fontSize=11;strokeWidth=2;exitX=1;exitY=0.5;exitDx=0;exitDy=0;" parent="1" source="OVmF6QTKROwjGrCkS3I4-9" edge="1">
                    <mxGeometry width="50" height="50" relative="1" as="geometry">
                        <mxPoint x="1020" y="300" as="sourcePoint"/>
                        <mxPoint x="1140" y="450" as="targetPoint"/>
                        <Array as="points">
                            <mxPoint x="1100" y="300"/>
                            <mxPoint x="1120" y="410"/>
                        </Array>
                    </mxGeometry>
                </mxCell>
                <mxCell id="OVmF6QTKROwjGrCkS3I4-39" value="" style="endArrow=classic;html=1;rounded=0;fontSize=11;strokeWidth=2;exitX=0.75;exitY=1;exitDx=0;exitDy=0;" parent="1" source="OVmF6QTKROwjGrCkS3I4-10" edge="1">
                    <mxGeometry width="50" height="50" relative="1" as="geometry">
                        <mxPoint x="1022.04" y="337.03999999999996" as="sourcePoint"/>
                        <mxPoint x="1090" y="800" as="targetPoint"/>
                        <Array as="points">
                            <mxPoint x="958" y="580"/>
                            <mxPoint x="958" y="800"/>
                        </Array>
                    </mxGeometry>
                </mxCell>
                <mxCell id="OVmF6QTKROwjGrCkS3I4-40" value="X" style="text;html=1;align=center;verticalAlign=middle;resizable=0;points=[];autosize=1;strokeColor=none;fillColor=none;fontSize=11;rounded=0;" parent="1" vertex="1">
                    <mxGeometry x="1664" y="635" width="20" height="20" as="geometry"/>
                </mxCell>
                <mxCell id="OVmF6QTKROwjGrCkS3I4-41" value="X" style="text;html=1;align=center;verticalAlign=middle;resizable=0;points=[];autosize=1;strokeColor=none;fillColor=none;fontSize=11;rounded=0;" parent="1" vertex="1">
                    <mxGeometry x="1666" y="685" width="20" height="20" as="geometry"/>
                </mxCell>
                <mxCell id="OVmF6QTKROwjGrCkS3I4-42" value="X" style="text;html=1;align=center;verticalAlign=middle;resizable=0;points=[];autosize=1;strokeColor=none;fillColor=none;fontSize=11;rounded=0;" parent="1" vertex="1">
                    <mxGeometry x="1664" y="735" width="20" height="20" as="geometry"/>
                </mxCell>
                <mxCell id="OVmF6QTKROwjGrCkS3I4-44" value="" style="shape=process;whiteSpace=wrap;html=1;backgroundOutline=1;fontSize=14;strokeWidth=2;fillColor=#fff2cc;gradientColor=#ffd966;strokeColor=#d6b656;rounded=0;" parent="1" vertex="1">
                    <mxGeometry x="580" y="435" width="100" height="55" as="geometry"/>
                </mxCell>
                <mxCell id="OVmF6QTKROwjGrCkS3I4-49" value="" style="endArrow=classic;html=1;rounded=0;fontSize=13;strokeWidth=2;" parent="1" edge="1">
                    <mxGeometry width="50" height="50" relative="1" as="geometry">
                        <mxPoint x="595" y="534.5" as="sourcePoint"/>
                        <mxPoint x="665" y="534.5" as="targetPoint"/>
                        <Array as="points">
                            <mxPoint x="635" y="534.5"/>
                            <mxPoint x="650" y="535"/>
                        </Array>
                    </mxGeometry>
                </mxCell>
                <mxCell id="OVmF6QTKROwjGrCkS3I4-50" value="Data flow" style="text;html=1;strokeColor=none;fillColor=none;align=center;verticalAlign=middle;whiteSpace=wrap;rounded=0;fontSize=14;" parent="1" vertex="1">
                    <mxGeometry x="717" y="520" width="60" height="30" as="geometry"/>
                </mxCell>
                <mxCell id="OVmF6QTKROwjGrCkS3I4-51" value="" style="rounded=0;whiteSpace=wrap;html=1;fontSize=13;strokeWidth=2;fillColor=none;gradientColor=none;dashed=1;dashPattern=1 1;" parent="1" vertex="1">
                    <mxGeometry x="570" y="250" width="230" height="340" as="geometry"/>
                </mxCell>
                <mxCell id="OVmF6QTKROwjGrCkS3I4-54" value="&lt;b&gt;&lt;font style=&quot;font-size: 20px&quot;&gt;Highlight React component Architecture&amp;nbsp;&lt;/font&gt;&lt;/b&gt;" style="text;html=1;strokeColor=none;fillColor=none;align=center;verticalAlign=middle;whiteSpace=wrap;rounded=0;fontSize=13;" parent="1" vertex="1">
                    <mxGeometry x="567" y="190" width="270" height="30" as="geometry"/>
                </mxCell>
                <mxCell id="OVmF6QTKROwjGrCkS3I4-55" value="" style="rounded=0;whiteSpace=wrap;html=1;arcSize=0;fillColor=#e1d5e7;strokeColor=#9673a6;strokeWidth=5;" parent="1" vertex="1">
                    <mxGeometry x="1673" y="215" width="237" height="145" as="geometry"/>
                </mxCell>
                <mxCell id="OVmF6QTKROwjGrCkS3I4-56" value="Image" style="shape=umlActor;verticalLabelPosition=bottom;verticalAlign=top;html=1;outlineConnect=0;rounded=0;" parent="1" vertex="1">
                    <mxGeometry x="1775" y="250" width="30" height="60" as="geometry"/>
                </mxCell>
                <mxCell id="OVmF6QTKROwjGrCkS3I4-57" value="&lt;div style=&quot;text-align: justify&quot;&gt;&lt;span style=&quot;font-size: 9px ; font-family: sans-serif ; text-align: left&quot;&gt;LittleZoo Werbung: Unser neues Bastelset s&lt;span style=&quot;background-color: rgb(255 , 255 , 153)&quot;&gt;tellt eine schöne&lt;/span&gt;, ideale Welt dar! Kinder können wirklich alles, was es im Zoo zu sehen und zu erleben gibt, nachspielen. Mit ihnen können Rollenspiele geübt und Verhaltensweisen&lt;/span&gt;&lt;/div&gt;" style="text;html=1;strokeColor=none;fillColor=none;align=center;verticalAlign=middle;whiteSpace=wrap;rounded=0;dashed=1;dashPattern=1 1;fontFamily=Courier New;fontSize=20;" parent="1" vertex="1">
                    <mxGeometry x="1708.5" y="447.5" width="166" height="5" as="geometry"/>
                </mxCell>
                <mxCell id="OVmF6QTKROwjGrCkS3I4-58" value="&lt;span style=&quot;font-family: sans-serif ; font-size: 9px ; text-align: left&quot;&gt;s&lt;/span&gt;&lt;span style=&quot;font-family: sans-serif ; font-size: 9px ; text-align: left ; background-color: rgb(255 , 255 , 153)&quot;&gt;tellt eine schöne&lt;/span&gt;" style="rounded=0;whiteSpace=wrap;html=1;fillColor=#E1D5E7;strokeColor=#9673A6;arcSize=4;" parent="1" vertex="1">
                    <mxGeometry x="1670" y="465" width="240" height="100" as="geometry"/>
                </mxCell>
                <mxCell id="OVmF6QTKROwjGrCkS3I4-59" value="&lt;font style=&quot;font-size: 26px&quot;&gt;[{dsdas},{id : 2 , vlaue: dasdasd}]&lt;/font&gt;" style="text;html=1;align=center;verticalAlign=middle;resizable=0;points=[];autosize=1;strokeColor=none;fillColor=none;fontSize=11;fontFamily=Courier New;fontColor=#191919;rounded=0;" parent="1" vertex="1">
                    <mxGeometry x="975" y="1120" width="560" height="20" as="geometry"/>
                </mxCell>
                <mxCell id="OVmF6QTKROwjGrCkS3I4-60" value="UserLik: x@cg.eu&lt;br&gt;group : cg" style="text;html=1;align=center;verticalAlign=middle;resizable=0;points=[];autosize=1;strokeColor=none;fillColor=none;fontSize=26;fontFamily=Courier New;fontColor=#191919;rounded=0;" parent="1" vertex="1">
                    <mxGeometry x="850" y="990" width="270" height="70" as="geometry"/>
                </mxCell>
                <mxCell id="OVmF6QTKROwjGrCkS3I4-62" value="{" style="text;html=1;align=center;verticalAlign=middle;resizable=0;points=[];autosize=1;strokeColor=none;fillColor=none;fontSize=26;fontFamily=Courier New;fontColor=#191919;rounded=0;" parent="1" vertex="1">
                    <mxGeometry x="945" y="1070" width="30" height="40" as="geometry"/>
                </mxCell>
                <mxCell id="OVmF6QTKROwjGrCkS3I4-63" value="Highlighted" style="text;html=1;align=center;verticalAlign=middle;resizable=0;points=[];autosize=1;strokeColor=none;fillColor=none;fontSize=26;fontFamily=Courier New;fontColor=#191919;rounded=0;" parent="1" vertex="1">
                    <mxGeometry x="960" y="1070" width="190" height="40" as="geometry"/>
                </mxCell>
                <mxCell id="OVmF6QTKROwjGrCkS3I4-64" value="" style="endArrow=none;html=1;rounded=0;fontSize=11;strokeWidth=2;startArrow=classic;startFill=1;endFill=0;" parent="1" source="OVmF6QTKROwjGrCkS3I4-10" edge="1">
                    <mxGeometry width="50" height="50" relative="1" as="geometry">
                        <mxPoint x="967.5" y="355" as="sourcePoint"/>
                        <mxPoint x="1100" y="820" as="targetPoint"/>
                        <Array as="points">
                            <mxPoint x="935" y="610"/>
                            <mxPoint x="935" y="820"/>
                        </Array>
                    </mxGeometry>
                </mxCell>
                <mxCell id="OVmF6QTKROwjGrCkS3I4-72" value="&lt;b&gt;Render the list of highlighted section (current state) as an array&lt;/b&gt;" style="text;html=1;strokeColor=none;fillColor=none;align=center;verticalAlign=middle;whiteSpace=wrap;rounded=0;fontSize=11;" parent="1" vertex="1">
                    <mxGeometry x="1510" y="585" width="89" height="30" as="geometry"/>
                </mxCell>
            </root>
        </mxGraphModel>
    </diagram>
</mxfile>